<svg width="52" height="52" viewBox="0 0 52 52" fill="none" xmlns="http://www.w3.org/2000/svg">
<rect x="26.2773" y="0.957596" width="35.8081" height="35.8081" rx="8" transform="rotate(45 26.2773 0.957596)" fill="#46A5DB"/>
<path d="M38.4653 26.8992L35.7346 28.3948L32.1992 20.979L34.9578 19.4682C35.1651 19.3547 35.4047 19.3349 35.6252 19.413C35.8456 19.4911 36.0293 19.661 36.1365 19.886L38.8535 25.5852C38.9079 25.6992 38.9409 25.8239 38.9508 25.952C38.9607 26.0801 38.9471 26.2091 38.911 26.3314C38.8749 26.4537 38.8168 26.5669 38.7403 26.6644C38.6638 26.7619 38.5703 26.8417 38.4653 26.8992V26.8992Z" stroke="white" stroke-width="2" stroke-linecap="round" stroke-linejoin="round"/>
<path d="M16.2936 28.2648L13.5628 26.7692C13.4578 26.7117 13.3643 26.6319 13.2878 26.5344C13.2113 26.4369 13.1533 26.3237 13.1171 26.2014C13.081 26.0791 13.0675 25.9501 13.0773 25.822C13.0872 25.6939 13.1203 25.5692 13.1746 25.4553L15.8916 19.7561C15.9989 19.5311 16.1825 19.3612 16.403 19.2831C16.6234 19.205 16.8631 19.2248 17.0703 19.3383L19.8289 20.849L16.2936 28.2648Z" stroke="white" stroke-width="2" stroke-linecap="round" stroke-linejoin="round"/>
<path d="M35.7374 28.3947L33.9697 30.6598L29.9044 35.1127C29.7964 35.2309 29.6624 35.3165 29.5153 35.3611C29.3682 35.4057 29.2131 35.4079 29.065 35.3673L22.662 33.614C22.5419 33.5811 22.4294 33.5209 22.3319 33.4374L16.293 28.265" stroke="white" stroke-width="2" stroke-linecap="round" stroke-linejoin="round"/>
<path d="M33.9701 30.6597L29.109 26.7873L27.6948 27.949C27.0829 28.4517 26.3386 28.7235 25.5736 28.7235C24.8087 28.7235 24.0644 28.4517 23.4524 27.949L22.8535 27.457C22.7522 27.3738 22.6684 27.2677 22.6078 27.1459C22.5472 27.0242 22.5112 26.8895 22.5022 26.7512C22.4932 26.6128 22.5115 26.474 22.5558 26.344C22.6001 26.2141 22.6693 26.0961 22.7589 25.998L27.0824 21.2623C27.1645 21.1724 27.2619 21.1011 27.3692 21.0525C27.4764 21.0038 27.5913 20.9788 27.7074 20.9788H32.2024" stroke="white" stroke-width="2" stroke-linecap="round" stroke-linejoin="round"/>
<path d="M19.8906 20.8491L25.5604 19.0387C25.763 18.974 25.9799 18.9908 26.1722 19.0861L29.9913 20.9788" stroke="white" stroke-width="2" stroke-linecap="round" stroke-linejoin="round"/>
<path d="M24.2493 37.9204L20.9196 37.0086C20.7844 36.9716 20.6592 36.9001 20.5541 36.8L18.0625 34.4277" stroke="white" stroke-width="2" stroke-linecap="round" stroke-linejoin="round"/>
</svg>
