<svg width="51" height="52" viewBox="0 0 51 52" fill="none" xmlns="http://www.w3.org/2000/svg">
<rect x="25.3203" y="0.957703" width="35.8081" height="35.8081" rx="8" transform="rotate(45 25.3203 0.957703)" fill="#EFAD35"/>
<path d="M17.3164 25.6034V19.6202C17.3164 19.4038 17.3949 19.1962 17.5346 19.0432C17.6743 18.8902 17.8637 18.8043 18.0613 18.8043H32.9591C33.1566 18.8043 33.3461 18.8902 33.4858 19.0432C33.6255 19.1962 33.704 19.4038 33.704 19.6202V25.6034C33.704 34.172 27.0646 37.0108 25.7389 37.4922C25.5907 37.5481 25.4297 37.5481 25.2815 37.4922C23.9558 37.0108 17.3164 34.172 17.3164 25.6034Z" stroke="white" stroke-width="2" stroke-linecap="round" stroke-linejoin="round"/>
<path d="M25.5117 23.6995V27.7791" stroke="white" stroke-width="2" stroke-linecap="round" stroke-linejoin="round"/>
<path d="M25.5119 32.6746C26.129 32.6746 26.6292 32.1266 26.6292 31.4507C26.6292 30.7747 26.129 30.2267 25.5119 30.2267C24.8948 30.2267 24.3945 30.7747 24.3945 31.4507C24.3945 32.1266 24.8948 32.6746 25.5119 32.6746Z" fill="white"/>
</svg>
