<svg width="67" height="67" viewBox="0 0 67 67" fill="none" xmlns="http://www.w3.org/2000/svg">
<g filter="url(#filter0_d)">
<rect x="26.3203" y="8.17505" width="35.8081" height="35.8081" rx="8" transform="rotate(45 26.3203 8.17505)" fill="#EFAD35"/>
<path d="M21.8582 36.2073C25.0052 36.2073 27.5563 33.413 27.5563 29.966C27.5563 26.519 25.0052 23.7247 21.8582 23.7247C18.7113 23.7247 16.1602 26.519 16.1602 29.966C16.1602 33.413 18.7113 36.2073 21.8582 36.2073Z" stroke="white" stroke-width="2" stroke-miterlimit="10"/>
<path d="M29.2461 23.9573C30.0298 23.7154 30.8518 23.6603 31.6566 23.7957C32.4614 23.9311 33.2304 24.2538 33.9117 24.7421C34.5931 25.2304 35.171 25.873 35.6065 26.6265C36.0421 27.3801 36.3251 28.2271 36.4366 29.1106C36.5481 29.994 36.4855 30.8934 36.2529 31.7481C36.0204 32.6028 35.6233 33.393 35.0884 34.0654C34.5536 34.7379 33.8934 35.277 33.1523 35.6465C32.4112 36.016 31.6064 36.2072 30.7922 36.2073" stroke="white" stroke-width="2" stroke-linecap="round" stroke-linejoin="round"/>
<path d="M13.9688 40.6958C14.8587 39.3093 16.0401 38.1776 17.4133 37.3964C18.7865 36.6152 20.3111 36.2073 21.8585 36.2073C23.4059 36.2072 24.9305 36.6149 26.3038 37.396C27.677 38.1771 28.8585 39.3087 29.7486 40.6951" stroke="white" stroke-width="2" stroke-linecap="round" stroke-linejoin="round"/>
<path d="M30.793 36.2073C32.3405 36.2061 33.8655 36.6133 35.2388 37.3945C36.6122 38.1757 37.7935 39.3079 38.6827 40.6952" stroke="white" stroke-width="2" stroke-linecap="round" stroke-linejoin="round"/>
</g>
<defs>
<filter id="filter0_d" x="0.314453" y="6.48877" width="60.0129" height="60.0129" filterUnits="userSpaceOnUse" color-interpolation-filters="sRGB">
<feFlood flood-opacity="0" result="BackgroundImageFix"/>
<feColorMatrix in="SourceAlpha" type="matrix" values="0 0 0 0 0 0 0 0 0 0 0 0 0 0 0 0 0 0 127 0"/>
<feOffset dx="4" dy="3"/>
<feGaussianBlur stdDeviation="4"/>
<feColorMatrix type="matrix" values="0 0 0 0 0 0 0 0 0 0 0 0 0 0 0 0 0 0 0.25 0"/>
<feBlend mode="normal" in2="BackgroundImageFix" result="effect1_dropShadow"/>
<feBlend mode="normal" in="SourceGraphic" in2="effect1_dropShadow" result="shape"/>
</filter>
</defs>
</svg>
