<svg width="68" height="68" viewBox="0 0 68 68" fill="none" xmlns="http://www.w3.org/2000/svg">
<g filter="url(#filter0_d)">
<rect x="27.3203" y="8.95758" width="35.8081" height="35.8081" rx="8" transform="rotate(45 27.3203 8.95758)" fill="#EFAD35"/>
<path d="M27.3913 41.1234C31.523 41.1234 34.8724 37.7406 34.8724 33.5677C34.8724 29.3948 31.523 26.012 27.3913 26.012C23.2596 26.012 19.9102 29.3948 19.9102 33.5677C19.9102 37.7406 23.2596 41.1234 27.3913 41.1234Z" stroke="white" stroke-width="2" stroke-miterlimit="10"/>
<path d="M27.3516 29.37V33.5676H31.5077" stroke="white" stroke-width="2" stroke-linecap="round" stroke-linejoin="round"/>
<path d="M23.1953 27.2846L23.9027 23.3437C23.9375 23.1502 24.0384 22.9751 24.1879 22.849C24.3373 22.723 24.5259 22.6539 24.7206 22.6539H29.9823C30.1771 22.6539 30.3656 22.723 30.5151 22.849C30.6646 22.9751 30.7655 23.1502 30.8002 23.3437L31.5077 27.2847" stroke="white" stroke-width="2" stroke-linecap="round" stroke-linejoin="round"/>
<path d="M23.2383 39.8505L23.9457 43.7915C23.9804 43.9851 24.0814 44.1601 24.2308 44.2862C24.3803 44.4122 24.5689 44.4813 24.7636 44.4813H30.0253C30.22 44.4813 30.4086 44.4122 30.5581 44.2862C30.7076 44.1601 30.8085 43.9851 30.8432 43.7915L31.5506 39.8505" stroke="white" stroke-width="2" stroke-linecap="round" stroke-linejoin="round"/>
</g>
<defs>
<filter id="filter0_d" x="1.31445" y="7.2713" width="60.0129" height="60.0129" filterUnits="userSpaceOnUse" color-interpolation-filters="sRGB">
<feFlood flood-opacity="0" result="BackgroundImageFix"/>
<feColorMatrix in="SourceAlpha" type="matrix" values="0 0 0 0 0 0 0 0 0 0 0 0 0 0 0 0 0 0 127 0"/>
<feOffset dx="4" dy="3"/>
<feGaussianBlur stdDeviation="4"/>
<feColorMatrix type="matrix" values="0 0 0 0 0 0 0 0 0 0 0 0 0 0 0 0 0 0 0.25 0"/>
<feBlend mode="normal" in2="BackgroundImageFix" result="effect1_dropShadow"/>
<feBlend mode="normal" in="SourceGraphic" in2="effect1_dropShadow" result="shape"/>
</filter>
</defs>
</svg>
