<svg width="51" height="51" viewBox="0 0 51 51" fill="none" xmlns="http://www.w3.org/2000/svg">
<rect x="25.3203" y="0.175049" width="35.8081" height="35.8081" rx="8" transform="rotate(45 25.3203 0.175049)" fill="#EFAD35"/>
<path d="M20.8582 28.2073C24.0052 28.2073 26.5563 25.413 26.5563 21.966C26.5563 18.519 24.0052 15.7247 20.8582 15.7247C17.7113 15.7247 15.1602 18.519 15.1602 21.966C15.1602 25.413 17.7113 28.2073 20.8582 28.2073Z" stroke="white" stroke-width="2" stroke-miterlimit="10"/>
<path d="M28.2461 15.9573C29.0298 15.7154 29.8518 15.6603 30.6566 15.7957C31.4614 15.9311 32.2304 16.2538 32.9117 16.7421C33.5931 17.2304 34.171 17.873 34.6065 18.6265C35.0421 19.3801 35.3251 20.2271 35.4366 21.1106C35.5481 21.994 35.4855 22.8934 35.2529 23.7481C35.0204 24.6028 34.6233 25.393 34.0884 26.0654C33.5536 26.7379 32.8934 27.277 32.1523 27.6465C31.4112 28.016 30.6064 28.2072 29.7922 28.2073" stroke="white" stroke-width="2" stroke-linecap="round" stroke-linejoin="round"/>
<path d="M12.9688 32.6958C13.8587 31.3093 15.0401 30.1776 16.4133 29.3964C17.7865 28.6152 19.3111 28.2073 20.8585 28.2073C22.4059 28.2072 23.9305 28.6149 25.3038 29.396C26.677 30.1771 27.8585 31.3087 28.7486 32.6951" stroke="white" stroke-width="2" stroke-linecap="round" stroke-linejoin="round"/>
<path d="M29.793 28.2073C31.3405 28.2061 32.8655 28.6133 34.2388 29.3945C35.6122 30.1757 36.7935 31.3079 37.6827 32.6952" stroke="white" stroke-width="2" stroke-linecap="round" stroke-linejoin="round"/>
</svg>
