<svg width="55" height="55" viewBox="0 0 55 55" fill="none" xmlns="http://www.w3.org/2000/svg">
<rect x="27.3223" y="2.95758" width="35.8081" height="35.8081" rx="8" transform="rotate(45 27.3223 2.95758)" fill="#EFAD35"/>
<path d="M27.3932 35.1234C31.5249 35.1234 34.8743 31.7406 34.8743 27.5677C34.8743 23.3948 31.5249 20.012 27.3932 20.012C23.2615 20.012 19.9121 23.3948 19.9121 27.5677C19.9121 31.7406 23.2615 35.1234 27.3932 35.1234Z" stroke="white" stroke-width="2" stroke-miterlimit="10"/>
<path d="M27.3535 23.37V27.5676H31.5097" stroke="white" stroke-width="2" stroke-linecap="round" stroke-linejoin="round"/>
<path d="M23.1973 21.2846L23.9047 17.3437C23.9394 17.1502 24.0403 16.9751 24.1898 16.849C24.3393 16.723 24.5279 16.6539 24.7226 16.6539H29.9843C30.179 16.6539 30.3676 16.723 30.5171 16.849C30.6665 16.9751 30.7675 17.1502 30.8022 17.3437L31.5096 21.2847" stroke="white" stroke-width="2" stroke-linecap="round" stroke-linejoin="round"/>
<path d="M23.2402 33.8505L23.9477 37.7915C23.9824 37.9851 24.0833 38.1601 24.2328 38.2862C24.3823 38.4122 24.5708 38.4813 24.7656 38.4813H30.0273C30.222 38.4813 30.4106 38.4122 30.56 38.2862C30.7095 38.1601 30.8104 37.9851 30.8452 37.7915L31.5526 33.8505" stroke="white" stroke-width="2" stroke-linecap="round" stroke-linejoin="round"/>
</svg>
