<svg width="51" height="52" viewBox="0 0 51 52" fill="none" xmlns="http://www.w3.org/2000/svg">
<rect x="25.4375" y="0.985229" width="35.9742" height="35.9742" rx="8" transform="rotate(45 25.4375 0.985229)" fill="#46D0DB"/>
<path d="M30.6077 32.997C30.6077 34.6639 28.6883 35.5993 27.3754 34.5723L25.469 33.081C24.745 32.5146 23.7282 32.5147 23.0043 33.0812L21.0997 34.5715C19.7868 35.5987 17.8672 34.6634 17.8672 32.9964V18.1618C17.8672 17.8975 17.9631 17.6439 18.1337 17.457C18.3044 17.2701 18.5359 17.165 18.7772 17.165H29.6976C29.939 17.165 30.1705 17.2701 30.3411 17.457C30.5118 17.6439 30.6077 17.8975 30.6077 18.1618V32.997Z" stroke="white" stroke-width="2" stroke-linecap="round" stroke-linejoin="round"/>
<path d="M20.2305 14.6588H32.0609C32.3023 14.6588 32.5337 14.7638 32.7044 14.9508C32.8751 15.1377 32.9709 15.3912 32.9709 15.6556V34.5945" stroke="white" stroke-width="2" stroke-linecap="round" stroke-linejoin="round"/>
</svg>
