<svg width="70" height="70" viewBox="0 0 70 70" fill="none" xmlns="http://www.w3.org/2000/svg">
<g filter="url(#filter0_d)">
<rect x="29.4375" y="7.98523" width="35.9742" height="35.9742" rx="8" transform="rotate(45 29.4375 7.98523)" fill="#46D0DB"/>
<path d="M34.6077 39.997C34.6077 41.6639 32.6883 42.5993 31.3754 41.5723L29.469 40.081C28.745 39.5146 27.7282 39.5147 27.0043 40.0812L25.0997 41.5715C23.7868 42.5987 21.8672 41.6634 21.8672 39.9964V25.1618C21.8672 24.8975 21.9631 24.6439 22.1337 24.457C22.3044 24.2701 22.5359 24.165 22.7772 24.165H33.6976C33.939 24.165 34.1705 24.2701 34.3411 24.457C34.5118 24.6439 34.6077 24.8975 34.6077 25.1618V39.997Z" stroke="white" stroke-width="2" stroke-linecap="round" stroke-linejoin="round"/>
<path d="M24.2305 21.6588H36.0609C36.3023 21.6588 36.5337 21.7638 36.7044 21.9508C36.8751 22.1377 36.9709 22.3912 36.9709 22.6556V41.5945" stroke="white" stroke-width="2" stroke-linecap="round" stroke-linejoin="round"/>
</g>
<defs>
<filter id="filter0_d" x="0" y="2.98523" width="66.8752" height="66.8752" filterUnits="userSpaceOnUse" color-interpolation-filters="sRGB">
<feFlood flood-opacity="0" result="BackgroundImageFix"/>
<feColorMatrix in="SourceAlpha" type="matrix" values="0 0 0 0 0 0 0 0 0 0 0 0 0 0 0 0 0 0 127 0"/>
<feOffset dx="4" dy="3"/>
<feGaussianBlur stdDeviation="4"/>
<feColorMatrix type="matrix" values="0 0 0 0 0 0 0 0 0 0 0 0 0 0 0 0 0 0 0.25 0"/>
<feBlend mode="normal" in2="BackgroundImageFix" result="effect1_dropShadow"/>
<feBlend mode="normal" in="SourceGraphic" in2="effect1_dropShadow" result="shape"/>
</filter>
</defs>
</svg>
