<svg width="25" height="28" viewBox="0 0 25 28" fill="none" xmlns="http://www.w3.org/2000/svg">
<path d="M19.8733 19.7618C19.8733 18.0556 18.5113 16.6725 16.8312 16.6725C15.1511 16.6725 13.7891 18.0556 13.7891 19.7618C13.7891 21.468 15.1511 22.8511 16.8312 22.8511C18.5113 22.8511 19.8733 21.468 19.8733 19.7618Z" stroke="white" stroke-width="2" stroke-linecap="round" stroke-linejoin="round"/>
<path d="M11.5183 20.0922L10.6216 21.3066C10.5734 21.3718 10.541 21.4477 10.5273 21.528C10.5136 21.6083 10.5189 21.6908 10.5427 21.7687C10.6587 22.1448 10.8074 22.5097 10.987 22.8591C11.0243 22.9315 11.0781 22.9937 11.1438 23.0408C11.2095 23.0879 11.2853 23.1184 11.365 23.1298L12.8449 23.3445C12.9163 23.4264 12.9906 23.5065 13.0678 23.5849C13.145 23.6633 13.2239 23.7387 13.3045 23.8113L13.3045 23.8113L13.5161 25.3139C13.5274 25.3946 13.5574 25.4715 13.6036 25.5382C13.6498 25.6048 13.711 25.6594 13.7821 25.6973C14.126 25.88 14.4852 26.0313 14.8555 26.1494C14.9323 26.1737 15.0136 26.1791 15.0929 26.1652C15.1721 26.1513 15.247 26.1184 15.3113 26.0694L16.5072 25.1585C16.6147 25.165 16.723 25.1683 16.8322 25.1684C16.9413 25.1684 17.0497 25.1651 17.1572 25.1585L17.1573 25.1585L18.3532 26.069C18.4173 26.1181 18.492 26.1509 18.5712 26.1648C18.6503 26.1788 18.7315 26.1734 18.8082 26.1492C19.1786 26.0314 19.5379 25.8804 19.882 25.698C19.9532 25.6601 20.0145 25.6055 20.0609 25.5388C20.1072 25.472 20.1373 25.395 20.1485 25.3142L20.3599 23.8113C20.4405 23.7388 20.5194 23.6633 20.5966 23.585C20.6738 23.5066 20.7481 23.4265 20.8196 23.3446L20.8196 23.3445L22.2993 23.1297C22.3788 23.1182 22.4545 23.0878 22.5201 23.0409C22.5857 22.9939 22.6395 22.9318 22.6768 22.8596C22.8567 22.5104 23.0057 22.1456 23.122 21.7695C23.1459 21.6916 23.1512 21.6089 23.1375 21.5285C23.1238 21.448 23.0915 21.372 23.0432 21.3067L22.1462 20.0922C22.1527 19.983 22.1559 19.873 22.1559 19.7622C22.1559 19.6514 22.1527 19.5413 22.1462 19.4321L22.1462 19.4321L23.0428 18.2176C23.0911 18.1525 23.1234 18.0766 23.1372 17.9962C23.1509 17.9159 23.1456 17.8334 23.1218 17.7555C23.0058 17.3794 22.8571 17.0145 22.6775 16.6651C22.6402 16.5928 22.5864 16.5305 22.5207 16.4835C22.455 16.4364 22.3791 16.4059 22.2995 16.3944L20.8196 16.1797C20.7482 16.0979 20.6739 16.0178 20.5967 15.9394C20.5195 15.861 20.4406 15.7855 20.36 15.713L20.3599 15.7129L20.1484 14.2103C20.1371 14.1296 20.1071 14.0527 20.0609 13.9861C20.0147 13.9194 19.9535 13.8649 19.8824 13.8269C19.5385 13.6442 19.1793 13.493 18.809 13.3749C18.7322 13.3506 18.6509 13.3451 18.5716 13.359C18.4924 13.373 18.4175 13.4058 18.3532 13.4549L17.1573 14.3658C17.0498 14.3592 16.9415 14.3559 16.8323 14.3559C16.7232 14.3559 16.6148 14.3592 16.5073 14.3658L16.5072 14.3658L15.3113 13.4552C15.2472 13.4062 15.1724 13.3734 15.0933 13.3594C15.0142 13.3455 14.933 13.3508 14.8563 13.375C14.4859 13.4928 14.1266 13.6438 13.7825 13.8262C13.7113 13.8641 13.65 13.9187 13.6036 13.9855C13.5573 14.0522 13.5272 14.1292 13.516 14.2101L13.3045 15.7129C13.224 15.7855 13.1451 15.8609 13.0679 15.9393C12.9907 16.0177 12.9164 16.0978 12.8449 16.1797L12.8449 16.1797L11.3652 16.3946C11.2857 16.406 11.21 16.4364 11.1444 16.4834C11.0787 16.5303 11.025 16.5925 10.9877 16.6646C10.8078 17.0139 10.6588 17.3787 10.5425 17.7547C10.5186 17.8327 10.5132 17.9153 10.5269 17.9958C10.5406 18.0763 10.573 18.1523 10.6213 18.2176L11.5183 19.4321C11.5118 19.5412 11.5086 19.6512 11.5085 19.7621C11.5085 19.8729 11.5118 19.9829 11.5183 20.0921L11.5183 20.0922Z" stroke="white" stroke-width="2" stroke-linecap="round" stroke-linejoin="round"/>
<path d="M11.7561 8.10386C11.7561 6.39771 10.3941 5.0146 8.71399 5.0146C7.03388 5.0146 5.67187 6.39771 5.67187 8.10386C5.67187 9.81001 7.03388 11.1931 8.71399 11.1931C10.3941 11.1931 11.7561 9.81001 11.7561 8.10386Z" stroke="white" stroke-width="2" stroke-linecap="round" stroke-linejoin="round"/>
<path d="M3.40111 8.66504L2.50445 9.87948C2.45618 9.94464 2.42385 10.0205 2.41013 10.1009C2.3964 10.1812 2.40167 10.2637 2.42551 10.3416C2.54149 10.7177 2.69017 11.0826 2.86977 11.432C2.90713 11.5043 2.96089 11.5666 3.02662 11.6137C3.09235 11.6607 3.16815 11.6913 3.24778 11.7027L4.7277 11.9174C4.79914 11.9992 4.87343 12.0793 4.95059 12.1577C5.02777 12.2361 5.10668 12.3116 5.18733 12.3841L5.18736 12.3842L5.39895 13.8868C5.41019 13.9675 5.44016 14.0444 5.4864 14.1111C5.53263 14.1777 5.59381 14.2323 5.66488 14.2702C6.00879 14.4529 6.36801 14.6042 6.7383 14.7222C6.81507 14.7466 6.89645 14.752 6.9757 14.7381C7.05495 14.7242 7.1298 14.6913 7.19409 14.6422L8.39003 13.7313C8.49753 13.7379 8.60585 13.7412 8.71499 13.7413C8.82414 13.7413 8.93249 13.7379 9.04004 13.7313L9.04008 13.7313L10.236 14.6419C10.3001 14.6909 10.3749 14.7238 10.454 14.7377C10.5331 14.7516 10.6143 14.7463 10.691 14.7221C11.0614 14.6043 11.4207 14.4533 11.7648 14.2709C11.836 14.233 11.8973 14.1784 11.9437 14.1116C11.99 14.0449 12.0201 13.9679 12.0313 13.8871L12.2428 12.3842C12.3233 12.3116 12.4022 12.2362 12.4794 12.1578C12.5566 12.0795 12.6309 11.9993 12.7024 11.9174L12.7024 11.9174L14.1821 11.7025C14.2616 11.6911 14.3373 11.6607 14.4029 11.6137C14.4686 11.5668 14.5223 11.5046 14.5596 11.4325C14.7395 11.0832 14.8885 10.7184 15.0048 10.3424C15.0287 10.2644 15.0341 10.1818 15.0204 10.1013C15.0067 10.0208 14.9743 9.94482 14.926 9.87954L14.029 8.66504C14.0355 8.55588 14.0387 8.44588 14.0388 8.33504C14.0388 8.2242 14.0355 8.11417 14.029 8.00495L14.029 8.00491L14.9257 6.79046C14.9739 6.7253 15.0063 6.64942 15.02 6.56909C15.0337 6.48875 15.0284 6.40625 15.0046 6.32838C14.8886 5.95226 14.7399 5.58734 14.5603 5.23795C14.523 5.16562 14.4692 5.10335 14.4035 5.05628C14.3378 5.00921 14.262 4.97869 14.1823 4.96724L12.7024 4.75255C12.631 4.67072 12.5567 4.5906 12.4795 4.5122C12.4023 4.43382 12.3234 4.35836 12.2428 4.2858L12.2428 4.28577L12.0312 2.78316C12.0199 2.70242 11.99 2.62556 11.9437 2.55889C11.8975 2.49223 11.8363 2.43768 11.7652 2.39973C11.4213 2.21706 11.0621 2.06578 10.6918 1.9477C10.615 1.92338 10.5337 1.91795 10.4544 1.93187C10.3752 1.94578 10.3003 1.97863 10.236 2.02771L9.04008 2.9386C8.93259 2.93203 8.82427 2.92872 8.71512 2.92869C8.60597 2.92869 8.49763 2.932 8.39008 2.9386L8.39004 2.9386L7.19414 2.02803C7.12997 1.97901 7.05525 1.94618 6.97614 1.93225C6.89703 1.91831 6.81579 1.92366 6.73912 1.94786C6.36874 2.06565 6.0094 2.21663 5.66534 2.39902C5.59412 2.43696 5.5328 2.49155 5.48645 2.5583C5.4401 2.62505 5.41004 2.70203 5.39876 2.78289L5.18735 4.28577C5.10677 4.35831 5.02788 4.43375 4.95067 4.51211C4.8735 4.59048 4.79918 4.67062 4.72774 4.75252L4.7277 4.75255L3.24805 4.96743C3.16854 4.97884 3.09285 5.00928 3.0272 5.05623C2.96156 5.10318 2.90784 5.16531 2.87047 5.23748C2.69059 5.58672 2.54163 5.95152 2.42534 6.32755C2.4014 6.40552 2.39606 6.48815 2.40976 6.56863C2.42346 6.64911 2.45581 6.72513 2.50414 6.79041L3.40111 8.00491C3.39464 8.11407 3.39139 8.22407 3.39136 8.33491C3.39136 8.44575 3.39461 8.55578 3.40112 8.66499L3.40111 8.66504Z" stroke="white" stroke-width="2" stroke-linecap="round" stroke-linejoin="round"/>
</svg>
