<svg width="54" height="54" viewBox="0 0 54 54" fill="none" xmlns="http://www.w3.org/2000/svg">
<rect x="27.4219" y="1.98535" width="35.9742" height="35.9742" rx="8" transform="rotate(45 27.4219 1.98535)" fill="#46D0DB"/>
<path d="M33.8733 32.7618C33.8733 31.0556 32.5113 29.6725 30.8312 29.6725C29.1511 29.6725 27.7891 31.0556 27.7891 32.7618C27.7891 34.468 29.1511 35.8511 30.8312 35.8511C32.5113 35.8511 33.8733 34.468 33.8733 32.7618Z" stroke="white" stroke-width="2" stroke-linecap="round" stroke-linejoin="round"/>
<path d="M25.5183 33.0922L24.6216 34.3066C24.5734 34.3718 24.541 34.4477 24.5273 34.528C24.5136 34.6083 24.5189 34.6908 24.5427 34.7687C24.6587 35.1448 24.8074 35.5097 24.987 35.8591C25.0243 35.9315 25.0781 35.9937 25.1438 36.0408C25.2095 36.0879 25.2853 36.1184 25.365 36.1298L26.8449 36.3445C26.9163 36.4264 26.9906 36.5065 27.0678 36.5849C27.145 36.6633 27.2239 36.7387 27.3045 36.8113L27.3045 36.8113L27.5161 38.3139C27.5274 38.3946 27.5574 38.4715 27.6036 38.5382C27.6498 38.6048 27.711 38.6594 27.7821 38.6973C28.126 38.88 28.4852 39.0313 28.8555 39.1494C28.9323 39.1737 29.0136 39.1791 29.0929 39.1652C29.1721 39.1513 29.247 39.1184 29.3113 39.0694L30.5072 38.1585C30.6147 38.165 30.723 38.1683 30.8322 38.1684C30.9413 38.1684 31.0497 38.1651 31.1572 38.1585L31.1573 38.1585L32.3532 39.069C32.4173 39.1181 32.492 39.1509 32.5712 39.1648C32.6503 39.1788 32.7315 39.1734 32.8082 39.1492C33.1786 39.0314 33.5379 38.8804 33.882 38.698C33.9532 38.6601 34.0145 38.6055 34.0609 38.5388C34.1072 38.472 34.1373 38.395 34.1485 38.3142L34.3599 36.8113C34.4405 36.7388 34.5194 36.6633 34.5966 36.585C34.6738 36.5066 34.7481 36.4265 34.8196 36.3446L34.8196 36.3445L36.2993 36.1297C36.3788 36.1182 36.4545 36.0878 36.5201 36.0409C36.5857 35.9939 36.6395 35.9318 36.6768 35.8596C36.8567 35.5104 37.0057 35.1456 37.122 34.7695C37.1459 34.6916 37.1512 34.6089 37.1375 34.5285C37.1238 34.448 37.0915 34.372 37.0432 34.3067L36.1462 33.0922C36.1527 32.983 36.1559 32.873 36.1559 32.7622C36.1559 32.6514 36.1527 32.5413 36.1462 32.4321L36.1462 32.4321L37.0428 31.2176C37.0911 31.1525 37.1234 31.0766 37.1372 30.9962C37.1509 30.9159 37.1456 30.8334 37.1218 30.7555C37.0058 30.3794 36.8571 30.0145 36.6775 29.6651C36.6402 29.5928 36.5864 29.5305 36.5207 29.4835C36.455 29.4364 36.3791 29.4059 36.2995 29.3944L34.8196 29.1797C34.7482 29.0979 34.6739 29.0178 34.5967 28.9394C34.5195 28.861 34.4406 28.7855 34.36 28.713L34.3599 28.7129L34.1484 27.2103C34.1371 27.1296 34.1071 27.0527 34.0609 26.9861C34.0147 26.9194 33.9535 26.8649 33.8824 26.8269C33.5385 26.6442 33.1793 26.493 32.809 26.3749C32.7322 26.3506 32.6509 26.3451 32.5716 26.359C32.4924 26.373 32.4175 26.4058 32.3532 26.4549L31.1573 27.3658C31.0498 27.3592 30.9415 27.3559 30.8323 27.3559C30.7232 27.3559 30.6148 27.3592 30.5073 27.3658L30.5072 27.3658L29.3113 26.4552C29.2472 26.4062 29.1724 26.3734 29.0933 26.3594C29.0142 26.3455 28.933 26.3508 28.8563 26.375C28.4859 26.4928 28.1266 26.6438 27.7825 26.8262C27.7113 26.8641 27.65 26.9187 27.6036 26.9855C27.5573 27.0522 27.5272 27.1292 27.516 27.2101L27.3045 28.7129C27.224 28.7855 27.1451 28.8609 27.0679 28.9393C26.9907 29.0177 26.9164 29.0978 26.8449 29.1797L26.8449 29.1797L25.3652 29.3946C25.2857 29.406 25.21 29.4364 25.1444 29.4834C25.0787 29.5303 25.025 29.5925 24.9877 29.6646C24.8078 30.0139 24.6588 30.3787 24.5425 30.7547C24.5186 30.8327 24.5132 30.9153 24.5269 30.9958C24.5406 31.0763 24.573 31.1523 24.6213 31.2176L25.5183 32.4321C25.5118 32.5412 25.5086 32.6512 25.5085 32.7621C25.5085 32.8729 25.5118 32.9829 25.5183 33.0921L25.5183 33.0922Z" stroke="white" stroke-width="2" stroke-linecap="round" stroke-linejoin="round"/>
<path d="M25.7561 21.1039C25.7561 19.3977 24.3941 18.0146 22.714 18.0146C21.0339 18.0146 19.6719 19.3977 19.6719 21.1039C19.6719 22.81 21.0339 24.1931 22.714 24.1931C24.3941 24.1931 25.7561 22.81 25.7561 21.1039Z" stroke="white" stroke-width="2" stroke-linecap="round" stroke-linejoin="round"/>
<path d="M17.4011 21.665L16.5045 22.8795C16.4562 22.9446 16.4239 23.0205 16.4101 23.1009C16.3964 23.1812 16.4017 23.2637 16.4255 23.3416C16.5415 23.7177 16.6902 24.0826 16.8698 24.432C16.9071 24.5043 16.9609 24.5666 17.0266 24.6137C17.0923 24.6607 17.1682 24.6913 17.2478 24.7027L18.7277 24.9174C18.7991 24.9992 18.8734 25.0793 18.9506 25.1577C19.0278 25.2361 19.1067 25.3116 19.1873 25.3841L19.1874 25.3842L19.399 26.8868C19.4102 26.9675 19.4402 27.0444 19.4864 27.1111C19.5326 27.1777 19.5938 27.2323 19.6649 27.2702C20.0088 27.4529 20.368 27.6042 20.7383 27.7222C20.8151 27.7466 20.8964 27.752 20.9757 27.7381C21.0549 27.7242 21.1298 27.6913 21.1941 27.6422L22.39 26.7313C22.4975 26.7379 22.6058 26.7412 22.715 26.7413C22.8241 26.7413 22.9325 26.7379 23.04 26.7313L23.0401 26.7313L24.236 27.6419C24.3001 27.6909 24.3749 27.7238 24.454 27.7377C24.5331 27.7516 24.6143 27.7463 24.691 27.7221C25.0614 27.6043 25.4207 27.4533 25.7648 27.2709C25.836 27.233 25.8973 27.1784 25.9437 27.1116C25.99 27.0449 26.0201 26.9679 26.0313 26.8871L26.2428 25.3842C26.3233 25.3116 26.4022 25.2362 26.4794 25.1578C26.5566 25.0795 26.6309 24.9993 26.7024 24.9174L26.7024 24.9174L28.1821 24.7025C28.2616 24.6911 28.3373 24.6607 28.4029 24.6137C28.4686 24.5668 28.5223 24.5046 28.5596 24.4325C28.7395 24.0832 28.8885 23.7184 29.0048 23.3424C29.0287 23.2644 29.0341 23.1818 29.0204 23.1013C29.0067 23.0208 28.9743 22.9448 28.926 22.8795L28.029 21.665C28.0355 21.5559 28.0387 21.4459 28.0388 21.335C28.0388 21.2242 28.0355 21.1142 28.029 21.005L28.029 21.0049L28.9257 19.7905C28.9739 19.7253 29.0063 19.6494 29.02 19.5691C29.0337 19.4887 29.0284 19.4062 29.0046 19.3284C28.8886 18.9523 28.7399 18.5873 28.5603 18.238C28.523 18.1656 28.4692 18.1034 28.4035 18.0563C28.3378 18.0092 28.262 17.9787 28.1823 17.9672L26.7024 17.7526C26.631 17.6707 26.5567 17.5906 26.4795 17.5122C26.4023 17.4338 26.3234 17.3584 26.2428 17.2858L26.2428 17.2858L26.0312 15.7832C26.0199 15.7024 25.99 15.6256 25.9437 15.5589C25.8975 15.4922 25.8363 15.4377 25.7652 15.3997C25.4213 15.2171 25.0621 15.0658 24.6918 14.9477C24.615 14.9234 24.5337 14.918 24.4544 14.9319C24.3752 14.9458 24.3003 14.9786 24.236 15.0277L23.0401 15.9386C22.9326 15.932 22.8243 15.9287 22.7151 15.9287C22.606 15.9287 22.4976 15.932 22.3901 15.9386L22.39 15.9386L21.1941 15.028C21.13 14.979 21.0553 14.9462 20.9761 14.9322C20.897 14.9183 20.8158 14.9237 20.7391 14.9479C20.3687 15.0656 20.0094 15.2166 19.6653 15.399C19.5941 15.437 19.5328 15.4916 19.4864 15.5583C19.4401 15.625 19.41 15.702 19.3988 15.7829L19.1874 17.2858C19.1068 17.3583 19.0279 17.4338 18.9507 17.5121C18.8735 17.5905 18.7992 17.6706 18.7277 17.7525L18.7277 17.7525L17.248 17.9674C17.1685 17.9788 17.0928 18.0093 17.0272 18.0562C16.9616 18.1032 16.9078 18.1653 16.8705 18.2375C16.6906 18.5867 16.5416 18.9515 16.4253 19.3275C16.4014 19.4055 16.3961 19.4881 16.4098 19.5686C16.4235 19.6491 16.4558 19.7251 16.5041 19.7904L17.4011 21.0049C17.3946 21.1141 17.3914 21.2241 17.3914 21.3349C17.3914 21.4457 17.3946 21.5558 17.4011 21.665L17.4011 21.665Z" stroke="white" stroke-width="2" stroke-linecap="round" stroke-linejoin="round"/>
</svg>
