<svg width="71" height="70" viewBox="0 0 71 70" fill="none" xmlns="http://www.w3.org/2000/svg">
<g filter="url(#filter0_d)">
<rect x="29.4375" y="7.98535" width="35.9742" height="35.9742" rx="8" transform="rotate(45 29.4375 7.98535)" fill="#46D0DB"/>
<path d="M31.8927 37.0607H18.5312" stroke="white" stroke-width="2" stroke-linecap="round" stroke-linejoin="round"/>
<path d="M42.3404 37.0607L37.5 37.0607" stroke="white" stroke-width="2" stroke-linecap="round" stroke-linejoin="round"/>
<path d="M34.5152 39.9999C35.9647 39.9999 37.1398 38.7936 37.1398 37.3056C37.1398 35.8175 35.9647 34.6112 34.5152 34.6112C33.0657 34.6112 31.8906 35.8175 31.8906 37.3056C31.8906 38.7936 33.0657 39.9999 34.5152 39.9999Z" stroke="white" stroke-width="2" stroke-linecap="round" stroke-linejoin="round"/>
<path d="M23.7804 28.2427H18.5312" stroke="white" stroke-width="2" stroke-linecap="round" stroke-linejoin="round"/>
<path d="M42.5 28.2427H29.0312" stroke="white" stroke-width="2" stroke-linecap="round" stroke-linejoin="round"/>
<path d="M26.4019 31.182C27.8514 31.182 29.0264 29.9757 29.0264 28.4877C29.0264 26.9996 27.8514 25.7933 26.4019 25.7933C24.9524 25.7933 23.7773 26.9996 23.7773 28.4877C23.7773 29.9757 24.9524 31.182 26.4019 31.182Z" stroke="white" stroke-width="2" stroke-linecap="round" stroke-linejoin="round"/>
</g>
<defs>
<filter id="filter0_d" x="0" y="2.98535" width="66.8752" height="66.8752" filterUnits="userSpaceOnUse" color-interpolation-filters="sRGB">
<feFlood flood-opacity="0" result="BackgroundImageFix"/>
<feColorMatrix in="SourceAlpha" type="matrix" values="0 0 0 0 0 0 0 0 0 0 0 0 0 0 0 0 0 0 127 0"/>
<feOffset dx="4" dy="3"/>
<feGaussianBlur stdDeviation="4"/>
<feColorMatrix type="matrix" values="0 0 0 0 0 0 0 0 0 0 0 0 0 0 0 0 0 0 0.25 0"/>
<feBlend mode="normal" in2="BackgroundImageFix" result="effect1_dropShadow"/>
<feBlend mode="normal" in="SourceGraphic" in2="effect1_dropShadow" result="shape"/>
</filter>
</defs>
</svg>
