<svg width="51" height="52" viewBox="0 0 51 52" fill="none" xmlns="http://www.w3.org/2000/svg">
<rect x="25.4375" y="0.985352" width="35.9742" height="35.9742" rx="8" transform="rotate(45 25.4375 0.985352)" fill="#46D0DB"/>
<path d="M27.8927 30.0607H14.5312" stroke="white" stroke-width="2" stroke-linecap="round" stroke-linejoin="round"/>
<path d="M38.3404 30.0607L33.5 30.0607" stroke="white" stroke-width="2" stroke-linecap="round" stroke-linejoin="round"/>
<path d="M30.5152 32.9999C31.9647 32.9999 33.1398 31.7936 33.1398 30.3056C33.1398 28.8175 31.9647 27.6112 30.5152 27.6112C29.0657 27.6112 27.8906 28.8175 27.8906 30.3056C27.8906 31.7936 29.0657 32.9999 30.5152 32.9999Z" stroke="white" stroke-width="2" stroke-linecap="round" stroke-linejoin="round"/>
<path d="M19.7804 21.2427H14.5312" stroke="white" stroke-width="2" stroke-linecap="round" stroke-linejoin="round"/>
<path d="M38.5 21.2427H25.0312" stroke="white" stroke-width="2" stroke-linecap="round" stroke-linejoin="round"/>
<path d="M22.4019 24.182C23.8514 24.182 25.0264 22.9757 25.0264 21.4877C25.0264 19.9996 23.8514 18.7933 22.4019 18.7933C20.9524 18.7933 19.7773 19.9996 19.7773 21.4877C19.7773 22.9757 20.9524 24.182 22.4019 24.182Z" stroke="white" stroke-width="2" stroke-linecap="round" stroke-linejoin="round"/>
</svg>
