<svg width="228" height="228" viewBox="0 0 228 228" fill="none" xmlns="http://www.w3.org/2000/svg">
<g filter="url(#filter0_d)">
<rect x="100.029" y="16.6184" width="119.232" height="119.232" rx="10" transform="rotate(45 100.029 16.6184)" fill="#EFAD35"/>
<path d="M119.244 95.1588C121.321 95.1588 123.005 93.4695 123.005 91.3856C123.005 89.3017 121.321 87.6124 119.244 87.6124C117.166 87.6124 115.482 89.3017 115.482 91.3856C115.482 93.4695 117.166 95.1588 119.244 95.1588Z" fill="white"/>
<path d="M99.9059 95.6974C101.983 95.6974 103.667 94.0081 103.667 91.9242C103.667 89.8403 101.983 88.151 99.9059 88.151C97.8285 88.151 96.1445 89.8403 96.1445 91.9242C96.1445 94.0081 97.8285 95.6974 99.9059 95.6974Z" fill="white"/>
<path d="M80.0152 95.1587C82.0926 95.1587 83.7766 93.4694 83.7766 91.3855C83.7766 89.3016 82.0926 87.6123 80.0152 87.6123C77.9379 87.6123 76.2539 89.3016 76.2539 91.3855C76.2539 93.4694 77.9379 95.1587 80.0152 95.1587Z" fill="white"/>
<path d="M119.244 108.634C121.321 108.634 123.005 106.945 123.005 104.861C123.005 102.777 121.321 101.088 119.244 101.088C117.166 101.088 115.482 102.777 115.482 104.861C115.482 106.945 117.166 108.634 119.244 108.634Z" fill="white"/>
<path d="M115.482 118.337C115.482 120.493 117.632 122.649 119.781 122.11C121.393 122.11 123.005 120.493 123.005 118.876C123.005 116.72 121.393 114.564 119.244 114.564C117.094 114.564 115.482 116.181 115.482 118.337Z" fill="white"/>
<path d="M99.9059 108.634C101.983 108.634 103.667 106.945 103.667 104.861C103.667 102.777 101.983 101.088 99.9059 101.088C97.8285 101.088 96.1445 102.777 96.1445 104.861C96.1445 106.945 97.8285 108.634 99.9059 108.634Z" fill="white"/>
<path d="M99.9059 122.11C101.983 122.11 103.667 120.421 103.667 118.337C103.667 116.253 101.983 114.564 99.9059 114.564C97.8285 114.564 96.1445 116.253 96.1445 118.337C96.1445 120.421 97.8285 122.11 99.9059 122.11Z" fill="white"/>
<path d="M80.0152 108.634C82.0926 108.634 83.7766 106.945 83.7766 104.861C83.7766 102.777 82.0926 101.088 80.0152 101.088C77.9379 101.088 76.2539 102.777 76.2539 104.861C76.2539 106.945 77.9379 108.634 80.0152 108.634Z" fill="white"/>
<path d="M80.0152 122.11C82.0926 122.11 83.7766 120.421 83.7766 118.337C83.7766 116.253 82.0926 114.564 80.0152 114.564C77.9379 114.564 76.2539 116.253 76.2539 118.337C76.2539 120.421 77.9379 122.11 80.0152 122.11Z" fill="white"/>
<path d="M121.4 135.586H78.4137C68.7417 135.586 60.6816 127.5 60.6816 117.798V91.3856C60.6816 82.7611 67.1297 75.2148 75.727 73.5977C77.339 73.0586 78.951 74.6757 78.951 76.2928C78.951 77.9099 78.4137 78.9879 76.8017 79.527C70.891 80.605 66.5923 85.4563 66.5923 91.3856V117.798C66.5923 124.266 71.9657 129.656 78.4137 129.656H121.4C127.848 129.656 133.222 124.266 133.222 117.798V91.3856C133.222 85.4563 128.923 80.605 123.012 79.527C121.4 78.9879 120.326 77.9099 120.326 76.2928C120.863 74.6757 121.938 73.5977 123.55 73.5977C132.147 75.2148 138.595 82.7611 138.595 91.3856V117.798C139.67 127.5 131.61 135.586 121.4 135.586Z" fill="white"/>
<path d="M104.738 79.5268H95.0656C93.4536 79.5268 92.3789 77.9097 92.3789 76.2926C92.3789 74.6756 93.9909 73.0585 95.6029 73.0585H105.275C106.887 73.0585 108.499 74.6756 108.499 76.2926C108.499 77.9097 106.35 79.5268 104.738 79.5268Z" fill="white"/>
<path d="M85.9369 84.917C84.3249 84.917 82.7129 83.2999 82.7129 81.6829V70.3633C82.7129 68.7462 83.7876 67.1292 85.9369 67.1292C87.5489 67.1292 88.6236 68.7462 88.6236 70.3633V82.2219C88.6236 83.839 87.5489 84.917 85.9369 84.917Z" fill="white"/>
<path d="M114.41 84.917C112.798 84.917 111.186 83.2999 111.186 81.6829V70.3633C111.723 68.7462 112.798 67.1292 114.41 67.1292C116.022 67.1292 117.634 68.7462 117.634 70.3633V82.2219C117.634 83.839 116.022 84.917 114.41 84.917Z" fill="white"/>
</g>
<defs>
<filter id="filter0_d" x="0.71875" y="0.618408" width="226.62" height="226.62" filterUnits="userSpaceOnUse" color-interpolation-filters="sRGB">
<feFlood flood-opacity="0" result="BackgroundImageFix"/>
<feColorMatrix in="SourceAlpha" type="matrix" values="0 0 0 0 0 0 0 0 0 0 0 0 0 0 0 0 0 0 127 0"/>
<feOffset dx="14" dy="13"/>
<feGaussianBlur stdDeviation="14.5"/>
<feColorMatrix type="matrix" values="0 0 0 0 0 0 0 0 0 0 0 0 0 0 0 0 0 0 0.25 0"/>
<feBlend mode="normal" in2="BackgroundImageFix" result="effect1_dropShadow"/>
<feBlend mode="normal" in="SourceGraphic" in2="effect1_dropShadow" result="shape"/>
</filter>
</defs>
</svg>
