<svg xmlns="http://www.w3.org/2000/svg" width="139mm" height="30mm" viewBox="0 0 394 85">
  <defs>
    <style>
      .a {
        fill: #e9e9e9;
      }

      .a, .b {
        fill-rule: evenodd;
      }

      .b, .f {
        fill: #ccc;
      }

      .c {
        fill: #46d0db;
      }

      .d {
        fill: #40989f;
      }

      .e {
        fill: #7fdee5;
      }
    </style>
  </defs>
  <title>TenderON_Logo</title>
  <g>
    <path class="a" d="M283.5,0a42.5,42.5,0,0,0,0,85h68a42.5,42.5,0,1,0,0-85Zm68,2.8h-68a39.7,39.7,0,1,0,0,79.4h68a39.7,39.7,0,0,0,0-79.4Z"/>
    <path class="b" d="M392.7,42.5C393.4,62.3,376.6,85,353,85l-70.1-.9a33.3,33.3,0,0,1-9.4-1.8,30.1,30.1,0,0,1-5.7-2.8l-7-4.4s7.7,5.5,16.8,6.7a59.8,59.8,0,0,0,9,.4h63.8c21.1,0,39.4-16,40.7-37.1.7-12.1-4.5-23-11.9-30.9C379.2,14.2,392.1,23,392.7,42.5Z"/>
    <ellipse class="c" cx="284.9" cy="42.5" rx="29.8" ry="28.3"/>
    <path class="d" d="M286.3,15.9a30.4,30.4,0,0,1,22.6,10,30,30,0,0,0-24-11.7c-16.5,0-29.8,12.7-29.8,28.3a27.8,27.8,0,0,0,7.1,18.4,27.2,27.2,0,0,1-5.7-16.7C256.5,28.6,269.8,15.9,286.3,15.9Z"/>
    <path class="e" d="M305.6,22.2A27.3,27.3,0,0,1,312,39.7C312,55.3,298.6,68,282.2,68a30,30,0,0,1-20.7-8,30.2,30.2,0,0,0,23.4,10.9c16.4,0,29.7-12.7,29.7-28.4A27.7,27.7,0,0,0,305.6,22.2Z"/>
    <polygon points="12.5 28.9 0 28.9 0 22.7 32 22.7 32 28.9 19.5 28.9 19.5 62.4 12.5 62.4 12.5 28.9"/>
    <polygon points="65.5 56.2 65.5 62.4 37.2 62.4 37.2 22.7 64.7 22.7 64.7 28.9 44.2 28.9 44.2 39.2 62.4 39.2 62.4 45.2 44.2 45.2 44.2 56.2 65.5 56.2"/>
    <polygon points="106.8 22.7 106.8 62.4 101 62.4 80.2 35.5 80.2 62.4 73.3 62.4 73.3 22.7 79 22.7 99.8 49.5 99.8 22.7 106.8 22.7"/>
    <path d="M133,56.1a15.4,15.4,0,0,0,7.3-1.6,11.7,11.7,0,0,0,4.8-4.8,14.2,14.2,0,0,0,1.7-7.2,13.6,13.6,0,0,0-1.7-7.1,11.1,11.1,0,0,0-4.8-4.8,15.4,15.4,0,0,0-7.3-1.7h-9.1V56.1ZM116.9,22.7h16.4A22,22,0,0,1,144,25.2a16.8,16.8,0,0,1,7.3,6.9,20.8,20.8,0,0,1,2.6,10.4A21.2,21.2,0,0,1,151.3,53a17.4,17.4,0,0,1-7.3,6.9,23.1,23.1,0,0,1-10.7,2.5H116.9Z"/>
    <polygon points="189.6 56.2 189.6 62.4 161.3 62.4 161.3 22.7 188.8 22.7 188.8 28.9 168.3 28.9 168.3 39.2 186.5 39.2 186.5 45.2 168.3 45.2 168.3 56.2 189.6 56.2"/>
    <path d="M221.9,36.8a7.1,7.1,0,0,0-2.4-5.8q-2.4-2.1-6.9-2.1h-8.2V44.7h8.2c3,0,5.3-.6,6.9-2A7.5,7.5,0,0,0,221.9,36.8Zm.1,25.6-7.7-11.7h-9.9V62.4h-7V22.7h15.5a18.7,18.7,0,0,1,8.5,1.7,12.2,12.2,0,0,1,5.6,4.9,13.9,13.9,0,0,1,1.9,7.5,13.9,13.9,0,0,1-2.1,7.7,11.3,11.3,0,0,1-5.9,4.8l8.7,13.1Z"/>
    <polygon class="c" points="368.5 17 368.5 68 360.7 68 332.5 33.5 332.5 68 323.1 68 323.1 17 330.9 17 359.1 51.6 359.1 17 368.5 17"/>
    <path class="b" d="M241.1,43.5C239.1,19.9,258.4,0,282,0c0,0,32.6.9,70.1.9a27.1,27.1,0,0,1,9.4,1.8,30.6,30.6,0,0,1,5.7,2.9l7,4.3s-7.8-5.5-16.8-6.6a53.8,53.8,0,0,0-9-.5H284.6c-21.1,0-41.1,14.2-42.5,37.9-1.2,18,7.9,28,7.9,28C243.8,61,242,54.4,241.1,43.5Z"/>
    <path class="f" d="M247.1,58.8a40.9,40.9,0,0,0,11.8,14.9,41,41,0,0,0,17.3,7.7,59.9,59.9,0,0,0,9.5.6h67a33.4,33.4,0,0,0,9.4-1.4,34.8,34.8,0,0,0,8.7-3.6,39.7,39.7,0,0,0,13.8-12.9,39.2,39.2,0,0,0,6.2-17.8,37.7,37.7,0,0,0-.3-9.5,42,42,0,0,0-2.6-9.2,41,41,0,0,0-11.2-15.2,37.3,37.3,0,0,0-16.8-8.5,26.7,26.7,0,0,0-4.7-.7h-4.8a38.5,38.5,0,0,1,4.8.1,35.5,35.5,0,0,1,4.7.6c12.6,2.7,23.4,12.1,28.3,23.9a36.1,36.1,0,0,1,2.7,9.2,44.1,44.1,0,0,1,.3,9.6,39.8,39.8,0,0,1-20.1,31.2,42.2,42.2,0,0,1-8.8,3.7,38.5,38.5,0,0,1-9.6,1.5h-67a43.9,43.9,0,0,1-9.6-.6,39.8,39.8,0,0,1-29-23Z"/>
    <polygon class="d" points="323.1 68 323.1 17 330.9 17 332 18.4 324.4 18.4 324.4 68 323.1 68"/>
    <polygon class="d" points="357.9 50.2 360.1 52.9 360.1 18.1 368.5 18.1 368.5 17 359.1 17 359.1 51.6 357.9 50.2"/>
    <polygon class="e" points="324.4 68 324.4 66.7 331.1 66.7 331.1 30.9 360.9 67 367.4 67 367.4 18.1 368.5 18.1 368.5 68 360.7 68 332.5 33.5 332.5 68 324.4 68"/>
    <polygon class="d" points="332.5 33.5 333.5 33.8 361.8 68 360.7 68 332.5 33.5"/>
  </g>
</svg>
